<svg width="40" height="40" viewBox="0 0 40 40" fill="none" xmlns="http://www.w3.org/2000/svg">
<circle cx="20" cy="20" r="13.4" fill="#808080" stroke="#808080" stroke-width="1.2"/>
<path d="M13.75 27.5C13.75 27.5 12.5 27.5 12.5 26.25C12.5 25 13.75 21.25 20 21.25C26.25 21.25 27.5 25 27.5 26.25C27.5 27.5 26.25 27.5 26.25 27.5H13.75ZM20 20C20.9946 20 21.9484 19.6049 22.6517 18.9017C23.3549 18.1984 23.75 17.2446 23.75 16.25C23.75 15.2554 23.3549 14.3016 22.6517 13.5983C21.9484 12.8951 20.9946 12.5 20 12.5C19.0054 12.5 18.0516 12.8951 17.3483 13.5983C16.6451 14.3016 16.25 15.2554 16.25 16.25C16.25 17.2446 16.6451 18.1984 17.3483 18.9017C18.0516 19.6049 19.0054 20 20 20Z" fill="white"/>
</svg>
