<svg xmlns="http://www.w3.org/2000/svg" width="13" height="13" viewBox="0 0 13 13" fill="none">
<path d="M7.12056 1.95455C7.12056 1.83399 7.07267 1.71838 6.98743 1.63313C6.90218 1.54789 6.78657 1.5 6.66602 1.5C6.54546 1.5 6.42985 1.54789 6.3446 1.63313C6.25936 1.71838 6.21147 1.83399 6.21147 1.95455V6.04545H2.12056C2.00001 6.04545 1.88439 6.09334 1.79915 6.17859C1.71391 6.26383 1.66602 6.37945 1.66602 6.5C1.66602 6.62055 1.71391 6.73617 1.79915 6.82141C1.88439 6.90666 2.00001 6.95455 2.12056 6.95455H6.21147V11.0455C6.21147 11.166 6.25936 11.2816 6.3446 11.3669C6.42985 11.4521 6.54546 11.5 6.66602 11.5C6.78657 11.5 6.90218 11.4521 6.98743 11.3669C7.07267 11.2816 7.12056 11.166 7.12056 11.0455V6.95455H11.2115C11.332 6.95455 11.4476 6.90666 11.5329 6.82141C11.6181 6.73617 11.666 6.62055 11.666 6.5C11.666 6.37945 11.6181 6.26383 11.5329 6.17859C11.4476 6.09334 11.332 6.04545 11.2115 6.04545H7.12056V1.95455Z" fill="#808080"/>
</svg>