<svg width="17" height="16" viewBox="0 0 17 16" fill="none" xmlns="http://www.w3.org/2000/svg">
<path fill-rule="evenodd" clip-rule="evenodd" d="M4.5 0C3.43913 0 2.42172 0.421427 1.67157 1.17157C0.921427 1.92172 0.5 2.93913 0.5 4V12C0.5 13.0609 0.921427 14.0783 1.67157 14.8284C2.42172 15.5786 3.43913 16 4.5 16H12.5C13.5609 16 14.5783 15.5786 15.3284 14.8284C16.0786 14.0783 16.5 13.0609 16.5 12V4C16.5 2.93913 16.0786 1.92172 15.3284 1.17157C14.5783 0.421427 13.5609 0 12.5 0H4.5ZM11.484 6.9472C11.5559 6.87051 11.6119 6.78041 11.649 6.68206C11.686 6.58371 11.7033 6.47902 11.6999 6.37398C11.6965 6.26894 11.6724 6.1656 11.629 6.06986C11.5857 5.97412 11.5239 5.88786 11.4472 5.816C11.3705 5.74414 11.2804 5.68809 11.1821 5.65105C11.0837 5.61401 10.979 5.5967 10.874 5.60012C10.7689 5.60354 10.6656 5.62761 10.5699 5.67097C10.4741 5.71432 10.3879 5.77611 10.316 5.8528L7.8496 8.4848L6.6312 7.4024C6.47157 7.2697 6.2666 7.20424 6.0596 7.21986C5.8526 7.23547 5.65977 7.33094 5.52186 7.4861C5.38394 7.64125 5.31174 7.84394 5.3205 8.05134C5.32926 8.25875 5.4183 8.45463 5.5688 8.5976L7.3688 10.1976C7.52455 10.3359 7.72812 10.4081 7.93623 10.3987C8.14434 10.3893 8.34058 10.299 8.4832 10.1472L11.484 6.9472Z" fill="#37D880"/>
</svg>
