<svg width="24" height="24" viewBox="0 0 24 24" fill="none" xmlns="http://www.w3.org/2000/svg">
<path d="M9 8.00014V16.0001C8.99997 16.0891 9.02369 16.1765 9.06869 16.2532C9.11369 16.33 9.17836 16.3933 9.25601 16.4367C9.33367 16.4801 9.4215 16.502 9.51044 16.5002C9.59939 16.4983 9.68623 16.4728 9.762 16.4261L16.262 12.4261C16.3348 12.3814 16.3949 12.3188 16.4366 12.2442C16.4783 12.1696 16.5002 12.0856 16.5002 12.0001C16.5002 11.9147 16.4783 11.8307 16.4366 11.7561C16.3949 11.6815 16.3348 11.6189 16.262 11.5741L9.762 7.57414C9.68623 7.52752 9.59939 7.50197 9.51044 7.50011C9.4215 7.49825 9.33367 7.52016 9.25601 7.56357C9.17836 7.60698 9.11369 7.67033 9.06869 7.74707C9.02369 7.82382 8.99997 7.91118 9 8.00014Z" fill="#37D880"/>
</svg>
