<svg xmlns="http://www.w3.org/2000/svg" width="16" height="17" viewBox="0 0 16 17" fill="none">
<g clip-path="url(#clip0_223_9421)">
<path d="M16.75 15.0625H16.125V6.9375C16.125 6.60598 15.9933 6.28804 15.7589 6.05362C15.5245 5.8192 15.2065 5.6875 14.875 5.6875H9.875V1.9375C9.875 1.60598 9.7433 1.28804 9.50888 1.05362C9.27446 0.819196 8.95652 0.6875 8.625 0.6875H1.125C0.793479 0.6875 0.475537 0.819196 0.241117 1.05362C0.00669611 1.28804 -0.125 1.60598 -0.125 1.9375V15.0625H-0.75C-0.91576 15.0625 -1.07473 15.1283 -1.19194 15.2456C-1.30915 15.3628 -1.375 15.5217 -1.375 15.6875C-1.375 15.8533 -1.30915 16.0122 -1.19194 16.1294C-1.07473 16.2467 -0.91576 16.3125 -0.75 16.3125H16.75C16.9158 16.3125 17.0747 16.2467 17.1919 16.1294C17.3092 16.0122 17.375 15.8533 17.375 15.6875C17.375 15.5217 17.3092 15.3628 17.1919 15.2456C17.0747 15.1283 16.9158 15.0625 16.75 15.0625ZM7.375 9.4375C7.375 9.60326 7.30915 9.76223 7.19194 9.87944C7.07473 9.99665 6.91576 10.0625 6.75 10.0625H4.25C4.08424 10.0625 3.92527 9.99665 3.80806 9.87944C3.69085 9.76223 3.625 9.60326 3.625 9.4375C3.625 9.27174 3.69085 9.11277 3.80806 8.99556C3.92527 8.87835 4.08424 8.8125 4.25 8.8125H6.75C6.91576 8.8125 7.07473 8.87835 7.19194 8.99556C7.30915 9.11277 7.375 9.27174 7.375 9.4375ZM3 3.8125H5.5C5.66576 3.8125 5.82473 3.87835 5.94194 3.99556C6.05915 4.11277 6.125 4.27174 6.125 4.4375C6.125 4.60326 6.05915 4.76223 5.94194 4.87944C5.82473 4.99665 5.66576 5.0625 5.5 5.0625H3C2.83424 5.0625 2.67527 4.99665 2.55806 4.87944C2.44085 4.76223 2.375 4.60326 2.375 4.4375C2.375 4.27174 2.44085 4.11277 2.55806 3.99556C2.67527 3.87835 2.83424 3.8125 3 3.8125ZM3 11.9375H5.5C5.66576 11.9375 5.82473 12.0033 5.94194 12.1206C6.05915 12.2378 6.125 12.3967 6.125 12.5625C6.125 12.7283 6.05915 12.8872 5.94194 13.0044C5.82473 13.1217 5.66576 13.1875 5.5 13.1875H3C2.83424 13.1875 2.67527 13.1217 2.55806 13.0044C2.44085 12.8872 2.375 12.7283 2.375 12.5625C2.375 12.3967 2.44085 12.2378 2.55806 12.1206C2.67527 12.0033 2.83424 11.9375 3 11.9375ZM9.875 6.9375H14.875V15.0625H9.875V6.9375ZM13.625 12.5625C13.625 12.7283 13.5592 12.8872 13.4419 13.0044C13.3247 13.1217 13.1658 13.1875 13 13.1875H11.75C11.5842 13.1875 11.4253 13.1217 11.3081 13.0044C11.1908 12.8872 11.125 12.7283 11.125 12.5625C11.125 12.3967 11.1908 12.2378 11.3081 12.1206C11.4253 12.0033 11.5842 11.9375 11.75 11.9375H13C13.1658 11.9375 13.3247 12.0033 13.4419 12.1206C13.5592 12.2378 13.625 12.3967 13.625 12.5625ZM11.125 9.4375C11.125 9.27174 11.1908 9.11277 11.3081 8.99556C11.4253 8.87835 11.5842 8.8125 11.75 8.8125H13C13.1658 8.8125 13.3247 8.87835 13.4419 8.99556C13.5592 9.11277 13.625 9.27174 13.625 9.4375C13.625 9.60326 13.5592 9.76223 13.4419 9.87944C13.3247 9.99665 13.1658 10.0625 13 10.0625H11.75C11.5842 10.0625 11.4253 9.99665 11.3081 9.87944C11.1908 9.76223 11.125 9.60326 11.125 9.4375Z" fill="#525252"/>
</g>
<defs>
<clipPath id="clip0_223_9421">
<rect width="16" height="16" fill="white" transform="translate(0 0.5)"/>
</clipPath>
</defs>
</svg>