<svg width="28" height="29" viewBox="0 0 28 29" fill="#272727" xmlns="http://www.w3.org/2000/svg">
    <path d="M9.21623 20.3468H18.7839C18.9168 20.3465 19.0449 20.396 19.143 20.4855C19.2412 20.575 19.3023 20.698 19.3143 20.8303C19.3263 20.9626 19.2883 21.0945 19.2079 21.2002C19.1274 21.3059 19.0103 21.3777 18.8796 21.4013L18.7839 21.4098H9.21623C9.08341 21.4101 8.9553 21.3606 8.85714 21.2711C8.75899 21.1816 8.69789 21.0586 8.68589 20.9263C8.67389 20.794 8.71185 20.6621 8.7923 20.5564C8.87275 20.4507 8.98985 20.3789 9.12056 20.3553L9.21623 20.3468ZM13.9044 7.59835L14.0001 7.58984C14.1245 7.5898 14.245 7.6334 14.3405 7.71304C14.4361 7.79269 14.5007 7.90333 14.5231 8.02571L14.5316 8.12138V17.468L17.3828 14.6178C17.4707 14.5298 17.5868 14.4754 17.7107 14.4641C17.8347 14.4529 17.9586 14.4854 18.061 14.5562L18.1354 14.6178C18.2233 14.7059 18.2775 14.8221 18.2886 14.946C18.2997 15.0699 18.2669 15.1938 18.196 15.2961L18.1344 15.3694L14.3764 19.1285C14.2883 19.2164 14.1722 19.2706 14.0483 19.2816C13.9243 19.2927 13.8004 19.26 13.6982 19.1891L13.6238 19.1285L9.86577 15.3694C9.7716 15.2757 9.71596 15.1501 9.70982 15.0173C9.70367 14.8846 9.74747 14.7544 9.83258 14.6523C9.91769 14.5503 10.0379 14.4838 10.1696 14.466C10.3013 14.4482 10.4349 14.4804 10.544 14.5562L10.6174 14.6178L13.4685 17.468V8.12138C13.4685 7.99698 13.5121 7.87649 13.5917 7.78092C13.6714 7.68535 13.782 7.62074 13.9044 7.59835Z"/>
</svg>