<svg width="280" height="72" viewBox="0 0 280 72" fill="none" xmlns="http://www.w3.org/2000/svg">
<path d="M15.4102 43V14.3672H36.6406V19.2109H21.1914V25.5586H35.5664V30.3828H21.1914V38.1758H37.1875V43H15.4102ZM40.625 33.6836L46.25 33.1367C46.5885 35.0247 47.2721 36.4115 48.3008 37.2969C49.3424 38.1823 50.7422 38.625 52.5 38.625C54.362 38.625 55.7617 38.2344 56.6992 37.4531C57.6497 36.6589 58.125 35.7344 58.125 34.6797C58.125 34.0026 57.9232 33.4297 57.5195 32.9609C57.1289 32.4792 56.4388 32.0625 55.4492 31.7109C54.7721 31.4766 53.2292 31.0599 50.8203 30.4609C47.7214 29.6927 45.5469 28.7487 44.2969 27.6289C42.5391 26.0534 41.6602 24.1328 41.6602 21.8672C41.6602 20.4089 42.0703 19.0482 42.8906 17.7852C43.724 16.5091 44.9154 15.5391 46.4648 14.875C48.0273 14.2109 49.9089 13.8789 52.1094 13.8789C55.7031 13.8789 58.4049 14.6667 60.2148 16.2422C62.0378 17.8177 62.9948 19.9206 63.0859 22.5508L57.3047 22.8047C57.0573 21.3333 56.5234 20.2786 55.7031 19.6406C54.8958 18.9896 53.6784 18.6641 52.0508 18.6641C50.3711 18.6641 49.056 19.0091 48.1055 19.6992C47.4935 20.1419 47.1875 20.7344 47.1875 21.4766C47.1875 22.1536 47.474 22.7331 48.0469 23.2148C48.776 23.8268 50.5469 24.4648 53.3594 25.1289C56.1719 25.793 58.2487 26.4831 59.5898 27.1992C60.944 27.9023 61.9987 28.8724 62.7539 30.1094C63.5221 31.3333 63.9062 32.8503 63.9062 34.6602C63.9062 36.3008 63.4505 37.8372 62.5391 39.2695C61.6276 40.7018 60.3385 41.7695 58.6719 42.4727C57.0052 43.1628 54.9284 43.5078 52.4414 43.5078C48.8216 43.5078 46.0417 42.6745 44.1016 41.0078C42.1615 39.3281 41.0026 36.8867 40.625 33.6836ZM82.0898 32.4727V27.6484H94.5508V39.0547C93.3398 40.2266 91.582 41.2617 89.2773 42.1602C86.9857 43.0456 84.6615 43.4883 82.3047 43.4883C79.3099 43.4883 76.6992 42.8633 74.4727 41.6133C72.2461 40.3503 70.5729 38.5534 69.4531 36.2227C68.3333 33.8789 67.7734 31.3333 67.7734 28.5859C67.7734 25.6042 68.3984 22.9544 69.6484 20.6367C70.8984 18.319 72.7279 16.5417 75.1367 15.3047C76.9727 14.3542 79.2578 13.8789 81.9922 13.8789C85.5469 13.8789 88.3203 14.6276 90.3125 16.125C92.3177 17.6094 93.6068 19.6667 94.1797 22.2969L88.4375 23.3711C88.0339 21.9648 87.2721 20.8581 86.1523 20.0508C85.0456 19.2305 83.6589 18.8203 81.9922 18.8203C79.4661 18.8203 77.4544 19.6211 75.957 21.2227C74.4727 22.8242 73.7305 25.2005 73.7305 28.3516C73.7305 31.75 74.4857 34.3021 75.9961 36.0078C77.5065 37.7005 79.4857 38.5469 81.9336 38.5469C83.1445 38.5469 84.3555 38.3125 85.5664 37.8438C86.7904 37.362 87.8385 36.7826 88.7109 36.1055V32.4727H82.0898Z" fill="#37D880"/>
<path d="M132.863 16.36H146.143V20.76H132.863V16.36ZM133.263 9L137.863 9.68C136.703 17.92 134.623 25.92 131.103 30.96C130.463 30.08 128.703 28.28 127.703 27.48C130.783 23.16 132.423 16.2 133.263 9ZM139.743 18.92L144.183 19.28C142.783 32.52 139.423 41.36 130.543 46.76C130.143 45.76 128.783 43.76 127.983 42.84C135.903 38.48 138.743 30.48 139.743 18.92ZM135.383 20.04C136.743 30.16 139.703 38.92 146.383 42.88C145.343 43.72 143.903 45.52 143.223 46.68C135.943 41.84 132.943 32.44 131.303 20.6L135.383 20.04ZM117.383 9.04H121.503V30.4H117.383V9.04ZM115.063 14.04V19.84H124.023V14.04H115.063ZM111.143 11H128.183V22.88H111.143V11ZM114.263 27.04V28.68H124.823V27.04H114.263ZM110.303 24.12H128.983V31.56H110.303V24.12ZM108.703 33.24C114.303 33.24 122.823 33.12 130.823 33L130.703 36.36C122.783 36.56 114.423 36.68 108.823 36.76L108.703 33.24ZM116.423 30.72L120.383 31.64C118.663 34.88 116.383 38.72 114.783 41.24L110.903 40.28C112.583 37.76 114.863 33.8 116.423 30.72ZM113.983 40.28L116.263 37.52C120.863 39.08 125.823 41.4 128.703 43.24L125.743 46.16C123.103 44.28 118.463 41.92 113.983 40.28ZM123.263 34.92L127.263 35.36C125.623 42.48 120.823 45.2 111.303 46.76C111.063 45.52 110.303 44 109.623 43.08C117.703 42.36 121.743 40.4 123.263 34.92ZM108.583 15.2H112.623V15.48H126.223V15.2H130.823V18.64H126.223V18.36H112.623V18.64H108.583V15.2ZM170.583 9.56H175.423V18.96H170.583V9.56ZM161.143 16.28H185.503V20.8H161.143V16.28ZM163.903 23.4L168.223 22.64C169.583 27.72 170.823 34.2 171.063 38.12L166.343 39.12C166.183 35.2 165.183 28.56 163.903 23.4ZM177.423 22.4L182.623 23.24C181.303 29.72 179.343 37.16 177.703 41.88L173.383 40.96C174.983 36.04 176.663 28.24 177.423 22.4ZM160.303 40.36H186.303V44.92H160.303V40.36ZM157.543 9.12L162.063 10.6C159.343 17.36 154.903 24.48 150.383 28.96C149.983 27.8 148.663 25.16 147.863 23.96C151.663 20.44 155.383 14.8 157.543 9.12ZM153.703 20.2L158.223 15.64L158.263 15.68V46.48H153.703V20.2ZM191.343 11.52H223.303V16.28H191.343V11.52ZM189.183 28.48H225.623V33.32H189.183V28.48ZM193.743 18.84L198.103 17.56C199.503 20.12 200.903 23.52 201.343 25.72L196.703 27.2C196.303 25.04 195.023 21.52 193.743 18.84ZM216.543 17.44L221.663 18.76C220.223 21.8 218.583 25.08 217.263 27.16L213.063 25.92C214.303 23.6 215.783 20.08 216.543 17.44ZM204.823 13.52H209.823V46.56H204.823V13.52ZM236.143 40.32H258.223V44.96H236.143V40.32ZM233.983 28.84H260.743V46.56H255.583V33.44H238.903V46.56H233.983V28.84ZM241.823 8.72L247.303 10.52C244.703 15.48 241.303 20.84 238.583 24.32L234.263 22.6C236.943 18.96 240.103 13.2 241.823 8.72ZM251.423 15.88L255.223 13.08C259.183 16.28 263.983 20.92 266.063 24.36L261.863 27.56C259.983 24.2 255.423 19.32 251.423 15.88ZM229.743 20.36C237.823 20.16 250.223 19.68 261.223 19.2L260.983 23.84C249.903 24.44 237.903 24.92 230.023 25.24L229.743 20.36Z" fill="#272727"/>
<path d="M17.6074 69V58.9785H24.8535V60.1611H18.9336V63.2305H24.4775V64.4062H18.9336V67.8174H25.0859V69H17.6074ZM26.7607 69V61.7402H27.8682V62.7725C28.4014 61.9749 29.1715 61.5762 30.1787 61.5762C30.6162 61.5762 31.0173 61.6559 31.3818 61.8154C31.751 61.9704 32.0267 62.1755 32.209 62.4307C32.3913 62.6859 32.5189 62.9889 32.5918 63.3398C32.6374 63.5677 32.6602 63.9665 32.6602 64.5361V69H31.4297V64.584C31.4297 64.0827 31.3818 63.709 31.2861 63.4629C31.1904 63.2122 31.0195 63.014 30.7734 62.8682C30.5319 62.7178 30.2471 62.6426 29.9189 62.6426C29.3949 62.6426 28.9414 62.8089 28.5586 63.1416C28.1803 63.4743 27.9912 64.1055 27.9912 65.0352V69H26.7607ZM36.5703 69L33.8086 61.7402H35.1074L36.666 66.0879C36.8346 66.5573 36.9896 67.0449 37.1309 67.5508C37.2402 67.168 37.3929 66.7077 37.5889 66.1699L39.2021 61.7402H40.4668L37.7188 69H36.5703ZM41.5605 60.3936V58.9785H42.791V60.3936H41.5605ZM41.5605 69V61.7402H42.791V69H41.5605ZM44.6572 69V61.7402H45.7646V62.8408C46.0472 62.3258 46.307 61.9863 46.5439 61.8223C46.7855 61.6582 47.0498 61.5762 47.3369 61.5762C47.7516 61.5762 48.1732 61.7083 48.6016 61.9727L48.1777 63.1143C47.877 62.9365 47.5762 62.8477 47.2754 62.8477C47.0065 62.8477 46.765 62.9297 46.5508 63.0938C46.3366 63.2533 46.1839 63.4766 46.0928 63.7637C45.9561 64.2012 45.8877 64.6797 45.8877 65.1992V69H44.6572ZM48.875 65.3701C48.875 64.0257 49.2487 63.0299 49.9961 62.3828C50.6204 61.8451 51.3815 61.5762 52.2793 61.5762C53.2773 61.5762 54.0931 61.9043 54.7266 62.5605C55.36 63.2122 55.6768 64.1146 55.6768 65.2676C55.6768 66.2018 55.5355 66.9378 55.2529 67.4756C54.9749 68.0088 54.5671 68.4235 54.0293 68.7197C53.4961 69.016 52.9128 69.1641 52.2793 69.1641C51.263 69.1641 50.4404 68.8382 49.8115 68.1865C49.1872 67.5348 48.875 66.596 48.875 65.3701ZM50.1396 65.3701C50.1396 66.2998 50.3424 66.9971 50.748 67.4619C51.1536 67.9222 51.6641 68.1523 52.2793 68.1523C52.89 68.1523 53.3981 67.9199 53.8037 67.4551C54.2093 66.9902 54.4121 66.2816 54.4121 65.3291C54.4121 64.4313 54.207 63.7523 53.7969 63.292C53.3913 62.8271 52.8854 62.5947 52.2793 62.5947C51.6641 62.5947 51.1536 62.8249 50.748 63.2852C50.3424 63.7454 50.1396 64.4404 50.1396 65.3701ZM57.126 69V61.7402H58.2334V62.7725C58.7666 61.9749 59.5368 61.5762 60.5439 61.5762C60.9814 61.5762 61.3825 61.6559 61.7471 61.8154C62.1162 61.9704 62.3919 62.1755 62.5742 62.4307C62.7565 62.6859 62.8841 62.9889 62.957 63.3398C63.0026 63.5677 63.0254 63.9665 63.0254 64.5361V69H61.7949V64.584C61.7949 64.0827 61.7471 63.709 61.6514 63.4629C61.5557 63.2122 61.3848 63.014 61.1387 62.8682C60.8971 62.7178 60.6123 62.6426 60.2842 62.6426C59.7601 62.6426 59.3066 62.8089 58.9238 63.1416C58.5456 63.4743 58.3564 64.1055 58.3564 65.0352V69H57.126ZM64.9189 69V61.7402H66.0195V62.7588C66.2474 62.4033 66.5505 62.1185 66.9287 61.9043C67.307 61.6855 67.7376 61.5762 68.2207 61.5762C68.7585 61.5762 69.1982 61.6878 69.54 61.9111C69.8864 62.1344 70.1302 62.4466 70.2715 62.8477C70.8457 62 71.5931 61.5762 72.5137 61.5762C73.2337 61.5762 73.7874 61.7767 74.1748 62.1777C74.5622 62.5742 74.7559 63.1872 74.7559 64.0166V69H73.5322V64.4268C73.5322 63.9346 73.4912 63.5814 73.4092 63.3672C73.3317 63.1484 73.1882 62.973 72.9785 62.8408C72.7689 62.7087 72.5228 62.6426 72.2402 62.6426C71.7298 62.6426 71.306 62.8135 70.9688 63.1553C70.6315 63.4925 70.4629 64.0348 70.4629 64.7822V69H69.2324V64.2832C69.2324 63.7363 69.1322 63.3262 68.9316 63.0527C68.7311 62.7793 68.403 62.6426 67.9473 62.6426C67.6009 62.6426 67.2796 62.7337 66.9834 62.916C66.6917 63.0983 66.4798 63.3649 66.3477 63.7158C66.2155 64.0667 66.1494 64.5726 66.1494 65.2334V69H64.9189ZM81.5508 66.6621L82.8223 66.8193C82.6217 67.5622 82.2503 68.1387 81.708 68.5488C81.1657 68.959 80.473 69.1641 79.6299 69.1641C78.568 69.1641 77.7249 68.8382 77.1006 68.1865C76.4808 67.5303 76.1709 66.612 76.1709 65.4316C76.1709 64.2103 76.4854 63.2624 77.1143 62.5879C77.7432 61.9134 78.5589 61.5762 79.5615 61.5762C80.5322 61.5762 81.3252 61.9066 81.9404 62.5674C82.5557 63.2282 82.8633 64.1579 82.8633 65.3564C82.8633 65.4294 82.861 65.5387 82.8564 65.6846H77.4424C77.488 66.4821 77.7135 67.0928 78.1191 67.5166C78.5247 67.9404 79.0306 68.1523 79.6367 68.1523C80.0879 68.1523 80.473 68.0339 80.792 67.7969C81.111 67.5599 81.3639 67.1816 81.5508 66.6621ZM77.5107 64.6729H81.5645C81.5098 64.0622 81.3548 63.6042 81.0996 63.2988C80.7077 62.8249 80.1995 62.5879 79.5752 62.5879C79.0101 62.5879 78.5339 62.777 78.1465 63.1553C77.7637 63.5335 77.5518 64.0394 77.5107 64.6729ZM84.374 69V61.7402H85.4814V62.7725C86.0146 61.9749 86.7848 61.5762 87.792 61.5762C88.2295 61.5762 88.6305 61.6559 88.9951 61.8154C89.3643 61.9704 89.64 62.1755 89.8223 62.4307C90.0046 62.6859 90.1322 62.9889 90.2051 63.3398C90.2507 63.5677 90.2734 63.9665 90.2734 64.5361V69H89.043V64.584C89.043 64.0827 88.9951 63.709 88.8994 63.4629C88.8037 63.2122 88.6328 63.014 88.3867 62.8682C88.1452 62.7178 87.8604 62.6426 87.5322 62.6426C87.0081 62.6426 86.5547 62.8089 86.1719 63.1416C85.7936 63.4743 85.6045 64.1055 85.6045 65.0352V69H84.374ZM94.8535 67.8994L95.0312 68.9863C94.6849 69.0592 94.375 69.0957 94.1016 69.0957C93.6549 69.0957 93.3086 69.0251 93.0625 68.8838C92.8164 68.7425 92.6432 68.5579 92.543 68.3301C92.4427 68.0977 92.3926 67.6123 92.3926 66.874V62.6973H91.4902V61.7402H92.3926V59.9424L93.6162 59.2041V61.7402H94.8535V62.6973H93.6162V66.9424C93.6162 67.2933 93.6367 67.5189 93.6777 67.6191C93.7233 67.7194 93.7939 67.7992 93.8896 67.8584C93.9899 67.9176 94.1312 67.9473 94.3135 67.9473C94.4502 67.9473 94.6302 67.9313 94.8535 67.8994ZM100.801 68.1045C100.345 68.4919 99.9053 68.7653 99.4814 68.9248C99.0622 69.0843 98.611 69.1641 98.1279 69.1641C97.3304 69.1641 96.7174 68.9704 96.2891 68.583C95.8607 68.1911 95.6465 67.6921 95.6465 67.0859C95.6465 66.7305 95.7262 66.4069 95.8857 66.1152C96.0498 65.819 96.2617 65.582 96.5215 65.4043C96.7858 65.2266 97.082 65.0921 97.4102 65.001C97.6517 64.9372 98.0163 64.8757 98.5039 64.8164C99.4974 64.6979 100.229 64.5566 100.698 64.3926C100.703 64.224 100.705 64.1169 100.705 64.0713C100.705 63.57 100.589 63.2168 100.356 63.0117C100.042 62.7337 99.5749 62.5947 98.9551 62.5947C98.3763 62.5947 97.9479 62.6973 97.6699 62.9023C97.3965 63.1029 97.1937 63.4606 97.0615 63.9756L95.8584 63.8115C95.9678 63.2965 96.1478 62.8818 96.3984 62.5674C96.6491 62.2484 97.0114 62.0046 97.4854 61.8359C97.9593 61.6628 98.5085 61.5762 99.1328 61.5762C99.7526 61.5762 100.256 61.6491 100.644 61.7949C101.031 61.9408 101.316 62.1253 101.498 62.3486C101.68 62.5674 101.808 62.8454 101.881 63.1826C101.922 63.3923 101.942 63.7705 101.942 64.3174V65.958C101.942 67.1019 101.967 67.8265 102.018 68.1318C102.072 68.4326 102.177 68.722 102.332 69H101.047C100.919 68.7448 100.837 68.4463 100.801 68.1045ZM100.698 65.3564C100.252 65.5387 99.5817 65.6937 98.6885 65.8213C98.1826 65.8942 97.8249 65.9762 97.6152 66.0674C97.4056 66.1585 97.2438 66.293 97.1299 66.4707C97.016 66.6439 96.959 66.8376 96.959 67.0518C96.959 67.3799 97.082 67.6533 97.3281 67.8721C97.5788 68.0908 97.9434 68.2002 98.4219 68.2002C98.8958 68.2002 99.3174 68.0977 99.6865 67.8926C100.056 67.6829 100.327 67.3981 100.5 67.0381C100.632 66.7601 100.698 66.3499 100.698 65.8076V65.3564ZM103.829 69V58.9785H105.06V69H103.829ZM107.295 69V67.5986H108.696V69C108.696 69.515 108.605 69.9297 108.423 70.2441C108.241 70.5632 107.951 70.8092 107.555 70.9824L107.213 70.4561C107.473 70.3421 107.664 70.1735 107.787 69.9502C107.91 69.7314 107.979 69.4147 107.992 69H107.295ZM114.473 65.7803L115.724 65.6709C115.783 66.1722 115.92 66.5846 116.134 66.9082C116.353 67.2272 116.69 67.487 117.146 67.6875C117.601 67.8835 118.114 67.9814 118.684 67.9814C119.189 67.9814 119.636 67.9062 120.023 67.7559C120.411 67.6055 120.698 67.4004 120.885 67.1406C121.076 66.8763 121.172 66.5892 121.172 66.2793C121.172 65.9648 121.081 65.6914 120.898 65.459C120.716 65.222 120.415 65.0238 119.996 64.8643C119.727 64.7594 119.132 64.5977 118.212 64.3789C117.291 64.1556 116.646 63.946 116.277 63.75C115.799 63.4993 115.441 63.1895 115.204 62.8203C114.972 62.4466 114.855 62.0296 114.855 61.5693C114.855 61.0635 114.999 60.5918 115.286 60.1543C115.573 59.7122 115.993 59.3773 116.544 59.1494C117.095 58.9215 117.708 58.8076 118.383 58.8076C119.126 58.8076 119.78 58.9284 120.345 59.1699C120.914 59.4069 121.352 59.7578 121.657 60.2227C121.963 60.6875 122.127 61.2139 122.149 61.8018L120.878 61.8975C120.81 61.264 120.577 60.7855 120.181 60.4619C119.789 60.1383 119.208 59.9766 118.438 59.9766C117.635 59.9766 117.05 60.1247 116.681 60.4209C116.316 60.7126 116.134 61.0658 116.134 61.4805C116.134 61.8405 116.264 62.1367 116.523 62.3691C116.779 62.6016 117.444 62.8408 118.52 63.0869C119.6 63.3285 120.34 63.5404 120.741 63.7227C121.325 63.9915 121.755 64.3333 122.033 64.748C122.311 65.1582 122.45 65.6322 122.45 66.1699C122.45 66.7031 122.298 67.2067 121.992 67.6807C121.687 68.1501 121.247 68.5169 120.673 68.7812C120.103 69.041 119.461 69.1709 118.745 69.1709C117.838 69.1709 117.077 69.0387 116.462 68.7744C115.851 68.5101 115.37 68.1136 115.02 67.585C114.673 67.0518 114.491 66.4502 114.473 65.7803ZM123.646 65.3701C123.646 64.0257 124.02 63.0299 124.768 62.3828C125.392 61.8451 126.153 61.5762 127.051 61.5762C128.049 61.5762 128.865 61.9043 129.498 62.5605C130.132 63.2122 130.448 64.1146 130.448 65.2676C130.448 66.2018 130.307 66.9378 130.024 67.4756C129.746 68.0088 129.339 68.4235 128.801 68.7197C128.268 69.016 127.684 69.1641 127.051 69.1641C126.035 69.1641 125.212 68.8382 124.583 68.1865C123.959 67.5348 123.646 66.596 123.646 65.3701ZM124.911 65.3701C124.911 66.2998 125.114 66.9971 125.52 67.4619C125.925 67.9222 126.436 68.1523 127.051 68.1523C127.661 68.1523 128.17 67.9199 128.575 67.4551C128.981 66.9902 129.184 66.2816 129.184 65.3291C129.184 64.4313 128.979 63.7523 128.568 63.292C128.163 62.8271 127.657 62.5947 127.051 62.5947C126.436 62.5947 125.925 62.8249 125.52 63.2852C125.114 63.7454 124.911 64.4404 124.911 65.3701ZM136.635 66.3408L137.845 66.498C137.713 67.332 137.373 67.986 136.826 68.46C136.284 68.9294 135.616 69.1641 134.823 69.1641C133.83 69.1641 133.03 68.8405 132.424 68.1934C131.822 67.5417 131.521 66.6097 131.521 65.3975C131.521 64.6136 131.651 63.9277 131.911 63.3398C132.171 62.752 132.565 62.3122 133.094 62.0205C133.627 61.7243 134.206 61.5762 134.83 61.5762C135.618 61.5762 136.263 61.7767 136.765 62.1777C137.266 62.5742 137.587 63.1393 137.729 63.873L136.532 64.0576C136.418 63.57 136.215 63.2031 135.924 62.957C135.637 62.7109 135.288 62.5879 134.878 62.5879C134.258 62.5879 133.755 62.8112 133.367 63.2578C132.98 63.6999 132.786 64.4017 132.786 65.3633C132.786 66.3385 132.973 67.0472 133.347 67.4893C133.72 67.9313 134.208 68.1523 134.81 68.1523C135.293 68.1523 135.696 68.0042 136.02 67.708C136.343 67.4118 136.548 66.9561 136.635 66.3408ZM138.904 60.3936V58.9785H140.135V60.3936H138.904ZM138.904 69V61.7402H140.135V69H138.904ZM146.752 68.1045C146.296 68.4919 145.856 68.7653 145.433 68.9248C145.013 69.0843 144.562 69.1641 144.079 69.1641C143.282 69.1641 142.669 68.9704 142.24 68.583C141.812 68.1911 141.598 67.6921 141.598 67.0859C141.598 66.7305 141.677 66.4069 141.837 66.1152C142.001 65.819 142.213 65.582 142.473 65.4043C142.737 65.2266 143.033 65.0921 143.361 65.001C143.603 64.9372 143.967 64.8757 144.455 64.8164C145.449 64.6979 146.18 64.5566 146.649 64.3926C146.654 64.224 146.656 64.1169 146.656 64.0713C146.656 63.57 146.54 63.2168 146.308 63.0117C145.993 62.7337 145.526 62.5947 144.906 62.5947C144.327 62.5947 143.899 62.6973 143.621 62.9023C143.348 63.1029 143.145 63.4606 143.013 63.9756L141.81 63.8115C141.919 63.2965 142.099 62.8818 142.35 62.5674C142.6 62.2484 142.963 62.0046 143.437 61.8359C143.91 61.6628 144.46 61.5762 145.084 61.5762C145.704 61.5762 146.207 61.6491 146.595 61.7949C146.982 61.9408 147.267 62.1253 147.449 62.3486C147.632 62.5674 147.759 62.8454 147.832 63.1826C147.873 63.3923 147.894 63.7705 147.894 64.3174V65.958C147.894 67.1019 147.919 67.8265 147.969 68.1318C148.023 68.4326 148.128 68.722 148.283 69H146.998C146.87 68.7448 146.788 68.4463 146.752 68.1045ZM146.649 65.3564C146.203 65.5387 145.533 65.6937 144.64 65.8213C144.134 65.8942 143.776 65.9762 143.566 66.0674C143.357 66.1585 143.195 66.293 143.081 66.4707C142.967 66.6439 142.91 66.8376 142.91 67.0518C142.91 67.3799 143.033 67.6533 143.279 67.8721C143.53 68.0908 143.895 68.2002 144.373 68.2002C144.847 68.2002 145.269 68.0977 145.638 67.8926C146.007 67.6829 146.278 67.3981 146.451 67.0381C146.583 66.7601 146.649 66.3499 146.649 65.8076V65.3564ZM149.78 69V58.9785H151.011V69H149.78ZM153.246 69V67.5986H154.647V69C154.647 69.515 154.556 69.9297 154.374 70.2441C154.192 70.5632 153.902 70.8092 153.506 70.9824L153.164 70.4561C153.424 70.3421 153.615 70.1735 153.738 69.9502C153.861 69.7314 153.93 69.4147 153.943 69H153.246ZM165.455 68.1045C164.999 68.4919 164.56 68.7653 164.136 68.9248C163.716 69.0843 163.265 69.1641 162.782 69.1641C161.985 69.1641 161.372 68.9704 160.943 68.583C160.515 68.1911 160.301 67.6921 160.301 67.0859C160.301 66.7305 160.381 66.4069 160.54 66.1152C160.704 65.819 160.916 65.582 161.176 65.4043C161.44 65.2266 161.736 65.0921 162.064 65.001C162.306 64.9372 162.671 64.8757 163.158 64.8164C164.152 64.6979 164.883 64.5566 165.353 64.3926C165.357 64.224 165.359 64.1169 165.359 64.0713C165.359 63.57 165.243 63.2168 165.011 63.0117C164.696 62.7337 164.229 62.5947 163.609 62.5947C163.031 62.5947 162.602 62.6973 162.324 62.9023C162.051 63.1029 161.848 63.4606 161.716 63.9756L160.513 63.8115C160.622 63.2965 160.802 62.8818 161.053 62.5674C161.303 62.2484 161.666 62.0046 162.14 61.8359C162.614 61.6628 163.163 61.5762 163.787 61.5762C164.407 61.5762 164.91 61.6491 165.298 61.7949C165.685 61.9408 165.97 62.1253 166.152 62.3486C166.335 62.5674 166.462 62.8454 166.535 63.1826C166.576 63.3923 166.597 63.7705 166.597 64.3174V65.958C166.597 67.1019 166.622 67.8265 166.672 68.1318C166.727 68.4326 166.831 68.722 166.986 69H165.701C165.574 68.7448 165.492 68.4463 165.455 68.1045ZM165.353 65.3564C164.906 65.5387 164.236 65.6937 163.343 65.8213C162.837 65.8942 162.479 65.9762 162.27 66.0674C162.06 66.1585 161.898 66.293 161.784 66.4707C161.67 66.6439 161.613 66.8376 161.613 67.0518C161.613 67.3799 161.736 67.6533 161.982 67.8721C162.233 68.0908 162.598 68.2002 163.076 68.2002C163.55 68.2002 163.972 68.0977 164.341 67.8926C164.71 67.6829 164.981 67.3981 165.154 67.0381C165.286 66.7601 165.353 66.3499 165.353 65.8076V65.3564ZM168.511 69V61.7402H169.618V62.7725C170.151 61.9749 170.922 61.5762 171.929 61.5762C172.366 61.5762 172.767 61.6559 173.132 61.8154C173.501 61.9704 173.777 62.1755 173.959 62.4307C174.141 62.6859 174.269 62.9889 174.342 63.3398C174.387 63.5677 174.41 63.9665 174.41 64.5361V69H173.18V64.584C173.18 64.0827 173.132 63.709 173.036 63.4629C172.94 63.2122 172.77 63.014 172.523 62.8682C172.282 62.7178 171.997 62.6426 171.669 62.6426C171.145 62.6426 170.691 62.8089 170.309 63.1416C169.93 63.4743 169.741 64.1055 169.741 65.0352V69H168.511ZM181.014 69V68.084C180.553 68.804 179.877 69.1641 178.983 69.1641C178.405 69.1641 177.871 69.0046 177.384 68.6855C176.901 68.3665 176.525 67.9222 176.256 67.3525C175.992 66.7783 175.859 66.1198 175.859 65.377C175.859 64.6523 175.98 63.9961 176.222 63.4082C176.463 62.8158 176.826 62.3623 177.309 62.0479C177.792 61.7334 178.332 61.5762 178.929 61.5762C179.366 61.5762 179.756 61.6696 180.098 61.8564C180.439 62.0387 180.717 62.278 180.932 62.5742V58.9785H182.155V69H181.014ZM177.124 65.377C177.124 66.3066 177.32 67.0016 177.712 67.4619C178.104 67.9222 178.566 68.1523 179.1 68.1523C179.637 68.1523 180.093 67.9336 180.467 67.4961C180.845 67.054 181.034 66.3818 181.034 65.4795C181.034 64.486 180.843 63.7568 180.46 63.292C180.077 62.8271 179.605 62.5947 179.045 62.5947C178.498 62.5947 178.04 62.818 177.671 63.2646C177.306 63.7113 177.124 64.4154 177.124 65.377ZM192.84 65.0693V63.8936L197.085 63.8867V67.6055C196.433 68.125 195.761 68.5169 195.068 68.7812C194.376 69.041 193.665 69.1709 192.936 69.1709C191.951 69.1709 191.056 68.9613 190.249 68.542C189.447 68.1182 188.841 67.5075 188.431 66.71C188.021 65.9124 187.815 65.0215 187.815 64.0371C187.815 63.0618 188.018 62.1527 188.424 61.3096C188.834 60.4619 189.422 59.833 190.188 59.4229C190.953 59.0127 191.835 58.8076 192.833 58.8076C193.558 58.8076 194.212 58.9261 194.795 59.1631C195.383 59.3955 195.843 59.7214 196.176 60.1406C196.508 60.5599 196.761 61.1068 196.935 61.7812L195.738 62.1094C195.588 61.599 195.401 61.1979 195.178 60.9062C194.954 60.6146 194.635 60.3822 194.221 60.209C193.806 60.0312 193.346 59.9424 192.84 59.9424C192.234 59.9424 191.71 60.0358 191.268 60.2227C190.826 60.4049 190.468 60.6465 190.194 60.9473C189.925 61.248 189.716 61.5785 189.565 61.9385C189.31 62.5583 189.183 63.2305 189.183 63.9551C189.183 64.8483 189.335 65.5957 189.641 66.1973C189.951 66.7988 190.399 67.2454 190.987 67.5371C191.575 67.8288 192.2 67.9746 192.86 67.9746C193.435 67.9746 193.995 67.8652 194.542 67.6465C195.089 67.4232 195.504 67.1862 195.786 66.9355V65.0693H192.84ZM198.432 65.3701C198.432 64.0257 198.805 63.0299 199.553 62.3828C200.177 61.8451 200.938 61.5762 201.836 61.5762C202.834 61.5762 203.65 61.9043 204.283 62.5605C204.917 63.2122 205.233 64.1146 205.233 65.2676C205.233 66.2018 205.092 66.9378 204.81 67.4756C204.532 68.0088 204.124 68.4235 203.586 68.7197C203.053 69.016 202.469 69.1641 201.836 69.1641C200.82 69.1641 199.997 68.8382 199.368 68.1865C198.744 67.5348 198.432 66.596 198.432 65.3701ZM199.696 65.3701C199.696 66.2998 199.899 66.9971 200.305 67.4619C200.71 67.9222 201.221 68.1523 201.836 68.1523C202.447 68.1523 202.955 67.9199 203.36 67.4551C203.766 66.9902 203.969 66.2816 203.969 65.3291C203.969 64.4313 203.764 63.7523 203.354 63.292C202.948 62.8271 202.442 62.5947 201.836 62.5947C201.221 62.5947 200.71 62.8249 200.305 63.2852C199.899 63.7454 199.696 64.4404 199.696 65.3701ZM208.699 69L205.938 61.7402H207.236L208.795 66.0879C208.964 66.5573 209.118 67.0449 209.26 67.5508C209.369 67.168 209.522 66.7077 209.718 66.1699L211.331 61.7402H212.596L209.848 69H208.699ZM218.652 66.6621L219.924 66.8193C219.723 67.5622 219.352 68.1387 218.81 68.5488C218.267 68.959 217.575 69.1641 216.731 69.1641C215.67 69.1641 214.826 68.8382 214.202 68.1865C213.582 67.5303 213.272 66.612 213.272 65.4316C213.272 64.2103 213.587 63.2624 214.216 62.5879C214.845 61.9134 215.66 61.5762 216.663 61.5762C217.634 61.5762 218.427 61.9066 219.042 62.5674C219.657 63.2282 219.965 64.1579 219.965 65.3564C219.965 65.4294 219.963 65.5387 219.958 65.6846H214.544C214.59 66.4821 214.815 67.0928 215.221 67.5166C215.626 67.9404 216.132 68.1523 216.738 68.1523C217.189 68.1523 217.575 68.0339 217.894 67.7969C218.213 67.5599 218.465 67.1816 218.652 66.6621ZM214.612 64.6729H218.666C218.611 64.0622 218.456 63.6042 218.201 63.2988C217.809 62.8249 217.301 62.5879 216.677 62.5879C216.112 62.5879 215.635 62.777 215.248 63.1553C214.865 63.5335 214.653 64.0394 214.612 64.6729ZM221.462 69V61.7402H222.569V62.8408C222.852 62.3258 223.112 61.9863 223.349 61.8223C223.59 61.6582 223.854 61.5762 224.142 61.5762C224.556 61.5762 224.978 61.7083 225.406 61.9727L224.982 63.1143C224.682 62.9365 224.381 62.8477 224.08 62.8477C223.811 62.8477 223.57 62.9297 223.355 63.0938C223.141 63.2533 222.989 63.4766 222.897 63.7637C222.761 64.2012 222.692 64.6797 222.692 65.1992V69H221.462ZM226.138 69V61.7402H227.245V62.7725C227.778 61.9749 228.549 61.5762 229.556 61.5762C229.993 61.5762 230.394 61.6559 230.759 61.8154C231.128 61.9704 231.404 62.1755 231.586 62.4307C231.768 62.6859 231.896 62.9889 231.969 63.3398C232.014 63.5677 232.037 63.9665 232.037 64.5361V69H230.807V64.584C230.807 64.0827 230.759 63.709 230.663 63.4629C230.567 63.2122 230.396 63.014 230.15 62.8682C229.909 62.7178 229.624 62.6426 229.296 62.6426C228.772 62.6426 228.318 62.8089 227.936 63.1416C227.557 63.4743 227.368 64.1055 227.368 65.0352V69H226.138ZM238.668 68.1045C238.212 68.4919 237.772 68.7653 237.349 68.9248C236.929 69.0843 236.478 69.1641 235.995 69.1641C235.198 69.1641 234.585 68.9704 234.156 68.583C233.728 68.1911 233.514 67.6921 233.514 67.0859C233.514 66.7305 233.593 66.4069 233.753 66.1152C233.917 65.819 234.129 65.582 234.389 65.4043C234.653 65.2266 234.949 65.0921 235.277 65.001C235.519 64.9372 235.883 64.8757 236.371 64.8164C237.365 64.6979 238.096 64.5566 238.565 64.3926C238.57 64.224 238.572 64.1169 238.572 64.0713C238.572 63.57 238.456 63.2168 238.224 63.0117C237.909 62.7337 237.442 62.5947 236.822 62.5947C236.243 62.5947 235.815 62.6973 235.537 62.9023C235.264 63.1029 235.061 63.4606 234.929 63.9756L233.726 63.8115C233.835 63.2965 234.015 62.8818 234.266 62.5674C234.516 62.2484 234.879 62.0046 235.353 61.8359C235.826 61.6628 236.376 61.5762 237 61.5762C237.62 61.5762 238.123 61.6491 238.511 61.7949C238.898 61.9408 239.183 62.1253 239.365 62.3486C239.548 62.5674 239.675 62.8454 239.748 63.1826C239.789 63.3923 239.81 63.7705 239.81 64.3174V65.958C239.81 67.1019 239.835 67.8265 239.885 68.1318C239.939 68.4326 240.044 68.722 240.199 69H238.914C238.786 68.7448 238.704 68.4463 238.668 68.1045ZM238.565 65.3564C238.119 65.5387 237.449 65.6937 236.556 65.8213C236.05 65.8942 235.692 65.9762 235.482 66.0674C235.273 66.1585 235.111 66.293 234.997 66.4707C234.883 66.6439 234.826 66.8376 234.826 67.0518C234.826 67.3799 234.949 67.6533 235.195 67.8721C235.446 68.0908 235.811 68.2002 236.289 68.2002C236.763 68.2002 237.185 68.0977 237.554 67.8926C237.923 67.6829 238.194 67.3981 238.367 67.0381C238.499 66.7601 238.565 66.3499 238.565 65.8076V65.3564ZM241.724 69V61.7402H242.831V62.7725C243.364 61.9749 244.134 61.5762 245.142 61.5762C245.579 61.5762 245.98 61.6559 246.345 61.8154C246.714 61.9704 246.99 62.1755 247.172 62.4307C247.354 62.6859 247.482 62.9889 247.555 63.3398C247.6 63.5677 247.623 63.9665 247.623 64.5361V69H246.393V64.584C246.393 64.0827 246.345 63.709 246.249 63.4629C246.153 63.2122 245.982 63.014 245.736 62.8682C245.495 62.7178 245.21 62.6426 244.882 62.6426C244.358 62.6426 243.904 62.8089 243.521 63.1416C243.143 63.4743 242.954 64.1055 242.954 65.0352V69H241.724ZM254.254 66.3408L255.464 66.498C255.332 67.332 254.992 67.986 254.445 68.46C253.903 68.9294 253.235 69.1641 252.442 69.1641C251.449 69.1641 250.649 68.8405 250.043 68.1934C249.441 67.5417 249.141 66.6097 249.141 65.3975C249.141 64.6136 249.271 63.9277 249.53 63.3398C249.79 62.752 250.184 62.3122 250.713 62.0205C251.246 61.7243 251.825 61.5762 252.449 61.5762C253.238 61.5762 253.882 61.7767 254.384 62.1777C254.885 62.5742 255.206 63.1393 255.348 63.873L254.151 64.0576C254.037 63.57 253.835 63.2031 253.543 62.957C253.256 62.7109 252.907 62.5879 252.497 62.5879C251.877 62.5879 251.374 62.8112 250.986 63.2578C250.599 63.6999 250.405 64.4017 250.405 65.3633C250.405 66.3385 250.592 67.0472 250.966 67.4893C251.34 67.9313 251.827 68.1523 252.429 68.1523C252.912 68.1523 253.315 68.0042 253.639 67.708C253.962 67.4118 254.167 66.9561 254.254 66.3408ZM261.486 66.6621L262.758 66.8193C262.557 67.5622 262.186 68.1387 261.644 68.5488C261.101 68.959 260.409 69.1641 259.565 69.1641C258.504 69.1641 257.66 68.8382 257.036 68.1865C256.416 67.5303 256.106 66.612 256.106 65.4316C256.106 64.2103 256.421 63.2624 257.05 62.5879C257.679 61.9134 258.494 61.5762 259.497 61.5762C260.468 61.5762 261.261 61.9066 261.876 62.5674C262.491 63.2282 262.799 64.1579 262.799 65.3564C262.799 65.4294 262.797 65.5387 262.792 65.6846H257.378C257.424 66.4821 257.649 67.0928 258.055 67.5166C258.46 67.9404 258.966 68.1523 259.572 68.1523C260.023 68.1523 260.409 68.0339 260.728 67.7969C261.047 67.5599 261.299 67.1816 261.486 66.6621ZM257.446 64.6729H261.5C261.445 64.0622 261.29 63.6042 261.035 63.2988C260.643 62.8249 260.135 62.5879 259.511 62.5879C258.946 62.5879 258.469 62.777 258.082 63.1553C257.699 63.5335 257.487 64.0394 257.446 64.6729Z" fill="#808080"/>
</svg>
