<svg xmlns="http://www.w3.org/2000/svg" width="20" height="20" viewBox="0 0 20 20" fill="none">
<path d="M15.128 9.99984C15.128 11.0141 14.8273 12.0056 14.2638 12.8489C13.7003 13.6922 12.8994 14.3495 11.9623 14.7377C11.0253 15.1258 9.99415 15.2274 8.99938 15.0295C8.0046 14.8316 7.09084 14.3432 6.37365 13.626C5.65646 12.9088 5.16805 11.9951 4.97017 11.0003C4.7723 10.0055 4.87385 8.97441 5.262 8.03736C5.65014 7.1003 6.30743 6.29938 7.15076 5.73589C7.99409 5.17239 8.98558 4.87163 9.99984 4.87163C11.3593 4.87375 12.6624 5.41472 13.6237 6.37599C14.585 7.33725 15.1259 8.6404 15.128 9.99984ZM18.3332 9.99984C18.3332 11.648 17.8444 13.2592 16.9288 14.6296C16.0131 16 14.7116 17.0681 13.1889 17.6988C11.6661 18.3296 9.99059 18.4946 8.37409 18.173C6.75758 17.8515 5.27272 17.0578 4.10728 15.8924C2.94185 14.727 2.14817 13.2421 1.82663 11.6256C1.50509 10.0091 1.67011 8.33352 2.30084 6.81081C2.93157 5.28809 3.99968 3.9866 5.37009 3.07092C6.7405 2.15525 8.35166 1.6665 9.99984 1.6665C12.2087 1.67074 14.3258 2.55007 15.8877 4.11196C17.4496 5.67384 18.3289 7.791 18.3332 9.99984ZM17.0511 9.99984C17.0511 8.60522 16.6376 7.24193 15.8628 6.08235C15.088 4.92278 13.9867 4.019 12.6982 3.4853C11.4098 2.95161 9.99202 2.81197 8.6242 3.08404C7.25639 3.35612 5.99997 4.02769 5.01383 5.01383C4.02769 5.99997 3.35612 7.25638 3.08405 8.6242C2.81197 9.99201 2.95161 11.4098 3.48531 12.6982C4.019 13.9867 4.92278 15.088 6.08236 15.8628C7.24193 16.6376 8.60523 17.0511 9.99984 17.0511C11.8693 17.049 13.6616 16.3054 14.9835 14.9835C16.3054 13.6616 17.049 11.8693 17.0511 9.99984Z" fill="#37D880"/>
</svg>