<svg width="32" height="32" viewBox="0 0 32 32" fill="none" xmlns="http://www.w3.org/2000/svg">
<g id="icon_search">
<path id="Vector" d="M23.9519 22.8499L18.758 17.656C19.564 16.614 19.9999 15.34 19.9999 14C19.9999 12.396 19.374 10.892 18.242 9.75799C17.11 8.624 15.602 8 14 8C12.398 8 10.89 8.626 9.75799 9.75799C8.624 10.89 8 12.396 8 14C8 15.602 8.626 17.11 9.75799 18.242C10.89 19.376 12.396 19.9999 14 19.9999C15.34 19.9999 16.612 19.564 17.654 18.76L22.8479 23.9519C22.8632 23.9672 22.8812 23.9793 22.9012 23.9875C22.9211 23.9958 22.9424 24 22.9639 24C22.9855 24 23.0068 23.9958 23.0267 23.9875C23.0466 23.9793 23.0647 23.9672 23.0799 23.9519L23.9519 23.0819C23.9672 23.0667 23.9793 23.0486 23.9875 23.0287C23.9958 23.0088 24 22.9875 24 22.9659C24 22.9444 23.9958 22.9231 23.9875 22.9032C23.9793 22.8833 23.9672 22.8652 23.9519 22.8499ZM17.168 17.168C16.32 18.014 15.196 18.48 14 18.48C12.804 18.48 11.68 18.014 10.832 17.168C9.98599 16.32 9.51999 15.196 9.51999 14C9.51999 12.804 9.98599 11.678 10.832 10.832C11.68 9.98599 12.804 9.51999 14 9.51999C15.196 9.51999 16.322 9.98399 17.168 10.832C18.014 11.68 18.48 12.804 18.48 14C18.48 15.196 18.014 16.322 17.168 17.168Z" fill="#BEBEBE"/>
</g>
</svg>
