<svg width="68" height="68" viewBox="0 0 68 68" fill="none" xmlns="http://www.w3.org/2000/svg">
<g filter="url(#filter0_d_505_1717)">
<rect x="4" width="60" height="60" rx="30" fill="#37D880" shape-rendering="crispEdges"/>
<path d="M45.5271 28.4657C45.4168 28.5761 45.2858 28.6637 45.1417 28.7234C44.9975 28.7832 44.843 28.8139 44.6869 28.8139C44.5309 28.8139 44.3764 28.7832 44.2322 28.7234C44.088 28.6637 43.9571 28.5761 43.8468 28.4657L35.1872 19.8046V43.0625C35.1872 43.3775 35.0621 43.6795 34.8394 43.9022C34.6168 44.1249 34.3147 44.25 33.9998 44.25C33.6848 44.25 33.3828 44.1249 33.1601 43.9022C32.9374 43.6795 32.8123 43.3775 32.8123 43.0625V19.8046L24.1528 28.4657C23.9299 28.6885 23.6277 28.8137 23.3126 28.8137C22.9975 28.8137 22.6953 28.6885 22.4725 28.4657C22.2497 28.2429 22.1245 27.9407 22.1245 27.6255C22.1245 27.3104 22.2497 27.0082 22.4725 26.7854L33.1597 16.0983C33.2699 15.9879 33.4009 15.9003 33.5451 15.8405C33.6892 15.7808 33.8437 15.75 33.9998 15.75C34.1558 15.75 34.3104 15.7808 34.4545 15.8405C34.5987 15.9003 34.7296 15.9879 34.8399 16.0983L45.5271 26.7854C45.6375 26.8957 45.7251 27.0267 45.7848 27.1708C45.8446 27.315 45.8753 27.4695 45.8753 27.6255C45.8753 27.7816 45.8446 27.9361 45.7848 28.0803C45.7251 28.2244 45.6375 28.3554 45.5271 28.4657Z" fill="white"/>
</g>
<defs>
<filter id="filter0_d_505_1717" x="0" y="0" width="68" height="68" filterUnits="userSpaceOnUse" color-interpolation-filters="sRGB">
<feFlood flood-opacity="0" result="BackgroundImageFix"/>
<feColorMatrix in="SourceAlpha" type="matrix" values="0 0 0 0 0 0 0 0 0 0 0 0 0 0 0 0 0 0 127 0" result="hardAlpha"/>
<feOffset dy="4"/>
<feGaussianBlur stdDeviation="2"/>
<feComposite in2="hardAlpha" operator="out"/>
<feColorMatrix type="matrix" values="0 0 0 0 0.937255 0 0 0 0 0.937255 0 0 0 0 0.937255 0 0 0 1 0"/>
<feBlend mode="normal" in2="BackgroundImageFix" result="effect1_dropShadow_505_1717"/>
<feBlend mode="normal" in="SourceGraphic" in2="effect1_dropShadow_505_1717" result="shape"/>
</filter>
</defs>
</svg>
