<svg width="24" height="24" viewBox="0 0 24 24" fill="none" xmlns="http://www.w3.org/2000/svg">
<path d="M16.4191 10.7501H21.3359C21.3953 10.7501 21.4535 10.767 21.5036 10.7989C21.5537 10.8308 21.5937 10.8763 21.6189 10.9301C21.6441 10.9839 21.6535 11.0438 21.6459 11.1027C21.6383 11.1616 21.614 11.2171 21.576 11.2627L19.1176 14.2138C19.0883 14.249 19.0516 14.2773 19.0101 14.2967C18.9686 14.3162 18.9233 14.3262 18.8775 14.3262C18.8317 14.3262 18.7865 14.3162 18.745 14.2967C18.7035 14.2773 18.6668 14.249 18.6374 14.2138L16.179 11.2627C16.141 11.2171 16.1168 11.1616 16.1092 11.1027C16.1016 11.0438 16.1109 10.9839 16.1361 10.9301C16.1613 10.8763 16.2013 10.8308 16.2514 10.7989C16.3016 10.767 16.3597 10.7501 16.4191 10.7501V10.7501ZM2.66406 13.251H7.58087C7.64027 13.251 7.69844 13.234 7.74856 13.2021C7.79868 13.1702 7.83867 13.1247 7.86386 13.0709C7.88906 13.0171 7.8984 12.9573 7.8908 12.8984C7.8832 12.8395 7.85898 12.7839 7.82096 12.7383L5.36255 9.78721C5.33321 9.75202 5.2965 9.72372 5.25501 9.7043C5.21353 9.68487 5.16828 9.6748 5.12247 9.6748C5.07666 9.6748 5.03141 9.68487 4.98992 9.7043C4.94843 9.72372 4.91172 9.75202 4.88238 9.78721L2.42397 12.7383C2.38596 12.7839 2.36173 12.8395 2.35413 12.8984C2.34653 12.9573 2.35588 13.0171 2.38107 13.0709C2.40626 13.1247 2.44626 13.1702 2.49638 13.2021C2.54649 13.234 2.60466 13.251 2.66406 13.251V13.251Z" fill="#525252"/>
<path fill-rule="evenodd" clip-rule="evenodd" d="M12.0003 5.7477C10.0596 5.7477 8.32394 6.63177 7.17727 8.02103C7.12606 8.0874 7.06204 8.14279 6.989 8.18392C6.91596 8.22504 6.8354 8.25106 6.7521 8.26043C6.6688 8.26979 6.58447 8.26231 6.50412 8.23843C6.42377 8.21455 6.34905 8.17476 6.28439 8.12142C6.21972 8.06808 6.16645 8.00229 6.12773 7.92794C6.089 7.8536 6.06562 7.77223 6.05898 7.68867C6.05234 7.60512 6.06256 7.52107 6.08905 7.44155C6.11554 7.36202 6.15774 7.28863 6.21316 7.22574C7.12874 6.11724 8.34343 5.29505 9.71278 4.85694C11.0821 4.41883 12.5485 4.38326 13.9375 4.75444C15.3265 5.12563 16.5796 5.88795 17.5479 6.95075C18.5161 8.01354 19.1587 9.33208 19.3993 10.7495H18.1276C17.8388 9.33753 17.0714 8.06854 15.9549 7.15715C14.8385 6.24575 13.4415 5.74787 12.0003 5.7477V5.7477ZM5.87304 13.2505C6.10976 14.4067 6.66877 15.4723 7.48548 16.3243C8.30219 17.1762 9.34327 17.7797 10.4884 18.0651C11.6336 18.3504 12.8362 18.306 13.9571 17.9368C15.0781 17.5677 16.0718 16.8889 16.8233 15.979C16.8745 15.9126 16.9385 15.8572 17.0116 15.8161C17.0846 15.775 17.1652 15.7489 17.2485 15.7396C17.3318 15.7302 17.4161 15.7377 17.4965 15.7616C17.5768 15.7854 17.6515 15.8252 17.7162 15.8786C17.7809 15.9319 17.8341 15.9977 17.8729 16.0721C17.9116 16.1464 17.935 16.2278 17.9416 16.3113C17.9483 16.3949 17.938 16.4789 17.9115 16.5585C17.8851 16.638 17.8428 16.7114 17.7874 16.7743C16.8719 17.8828 15.6572 18.705 14.2878 19.1431C12.9185 19.5812 11.4521 19.6167 10.0631 19.2456C8.67413 18.8744 7.42099 18.112 6.45274 17.0492C5.48448 15.9865 4.84187 14.6679 4.60132 13.2505H5.87304Z" fill="#525252"/>
</svg>
