<svg width="96" height="19" viewBox="0 0 96 19" fill="none" xmlns="http://www.w3.org/2000/svg">
<path d="M0.578125 0.246875H4.5375L14.8516 8.90938L14.8625 0.246875H17.2687V16.5H13.3094L2.98437 7.87031V16.5H0.578125V0.246875ZM28.5789 11.78C28.5789 12.0573 28.5629 12.3507 28.5309 12.66H21.5229C21.5762 13.524 21.8695 14.2013 22.4029 14.692C22.9469 15.172 23.6029 15.412 24.3709 15.412C25.0002 15.412 25.5229 15.268 25.9389 14.98C26.3655 14.6813 26.6642 14.2867 26.8349 13.796H28.4029C28.1682 14.6387 27.6989 15.3267 26.9949 15.86C26.2909 16.3827 25.4162 16.644 24.3709 16.644C23.5389 16.644 22.7922 16.4573 22.1309 16.084C21.4802 15.7107 20.9682 15.1827 20.5949 14.5C20.2215 13.8067 20.0349 13.0067 20.0349 12.1C20.0349 11.1933 20.2162 10.3987 20.5789 9.716C20.9415 9.03333 21.4482 8.51067 22.0989 8.148C22.7602 7.77467 23.5175 7.588 24.3709 7.588C25.2029 7.588 25.9389 7.76933 26.5789 8.132C27.2189 8.49467 27.7095 8.996 28.0509 9.636C28.4029 10.2653 28.5789 10.98 28.5789 11.78ZM27.0749 11.476C27.0749 10.9213 26.9522 10.4467 26.7069 10.052C26.4615 9.64667 26.1255 9.34267 25.6989 9.14C25.2829 8.92667 24.8189 8.82 24.3069 8.82C23.5709 8.82 22.9415 9.05467 22.4189 9.524C21.9069 9.99333 21.6135 10.644 21.5389 11.476H27.0749ZM41.366 15.332C42.7207 14.244 43.782 13.3533 44.55 12.66C45.318 11.956 45.9633 11.2253 46.486 10.468C47.0193 9.7 47.286 8.948 47.286 8.212C47.286 7.51867 47.1153 6.97467 46.774 6.58C46.4433 6.17467 45.9047 5.972 45.158 5.972C44.4327 5.972 43.8673 6.20133 43.462 6.66C43.0673 7.108 42.854 7.71067 42.822 8.468H41.414C41.4567 7.27333 41.8193 6.35067 42.502 5.7C43.1847 5.04933 44.0647 4.724 45.142 4.724C46.2407 4.724 47.11 5.028 47.75 5.636C48.4007 6.244 48.726 7.08133 48.726 8.148C48.726 9.03333 48.4593 9.89733 47.926 10.74C47.4033 11.572 46.806 12.308 46.134 12.948C45.462 13.5773 44.6033 14.3133 43.558 15.156H49.062V16.372H41.366V15.332ZM50.3131 6.9L51.9291 6.18H52.6651V15.62H51.7051V7.396L50.3131 8.004V6.9ZM49.4491 9.348L50.8251 8.756V16.516H53.5451V5.284H51.7851L49.4491 6.34V9.348ZM49.0491 6.084L51.6891 4.884H53.9451L55.4971 6.532V18.468H52.0731L50.4251 16.916V11.204L49.0491 9.956V6.084ZM63.7569 13.396C64.0129 13.396 64.2795 13.3853 64.5569 13.364C64.8342 13.332 65.1062 13.284 65.3729 13.22C65.6502 13.156 65.9169 13.0707 66.1729 12.964C66.4289 12.8573 66.6582 12.724 66.8609 12.564C66.4662 13.012 66.0182 13.3693 65.5169 13.636C65.0155 13.892 64.4609 14.02 63.8529 14.02C63.2129 14.02 62.5835 13.972 61.9649 13.876C61.3569 13.7693 60.7862 13.5187 60.2529 13.124L58.3009 14.788C59.1009 15.5133 59.9649 16.004 60.8929 16.26C61.8209 16.516 62.8129 16.644 63.8689 16.644C64.8395 16.644 65.7302 16.5053 66.5409 16.228C67.3515 15.94 68.0449 15.5293 68.6209 14.996C69.1969 14.4627 69.6449 13.812 69.9649 13.044C70.2849 12.2653 70.4449 11.38 70.4449 10.388C70.4449 9.67333 70.3489 9.044 70.1569 8.5C69.9649 7.956 69.7035 7.492 69.3729 7.108C69.0422 6.724 68.6475 6.404 68.1889 6.148C67.7409 5.892 67.2502 5.68933 66.7169 5.54C66.1942 5.39067 65.6395 5.28933 65.0529 5.236C64.4769 5.172 63.8955 5.14 63.3089 5.14C62.7542 5.14 62.1729 5.236 61.5649 5.428C60.9675 5.62 60.4182 5.892 59.9169 6.244C59.4262 6.596 59.0155 7.028 58.6849 7.54C58.3649 8.04133 58.2049 8.60667 58.2049 9.236C58.2049 10.1107 58.3542 10.82 58.6529 11.364C58.9515 11.908 59.3569 12.3293 59.8689 12.628C60.3809 12.9267 60.9729 13.1293 61.6449 13.236C62.3169 13.3427 63.0209 13.396 63.7569 13.396ZM63.7409 10.756C63.4635 10.756 63.1595 10.7453 62.8289 10.724C62.5089 10.7027 62.2102 10.644 61.9329 10.548C61.6555 10.4413 61.4262 10.2867 61.2449 10.084C61.0635 9.88133 60.9729 9.59333 60.9729 9.22C60.9729 8.964 61.0742 8.75067 61.2769 8.58C61.4795 8.40933 61.7195 8.27067 61.9969 8.164C62.2742 8.05733 62.5569 7.98267 62.8449 7.94C63.1435 7.89733 63.3889 7.876 63.5809 7.876H64.2529C64.4982 7.876 64.8075 7.90267 65.1809 7.956C65.5649 8.00933 65.9329 8.10533 66.2849 8.244C66.6369 8.372 66.9409 8.54267 67.1969 8.756C67.4529 8.96933 67.5915 9.236 67.6129 9.556C67.4209 9.812 67.1649 10.02 66.8449 10.18C66.5355 10.34 66.1995 10.4627 65.8369 10.548C65.4742 10.6333 65.1062 10.692 64.7329 10.724C64.3702 10.7453 64.0395 10.756 63.7409 10.756ZM68.4769 9.604C68.4769 9.04933 68.2955 8.60133 67.9329 8.26C67.5809 7.91867 67.1489 7.65733 66.6369 7.476C66.1249 7.284 65.5862 7.156 65.0209 7.092C64.4662 7.028 63.9862 6.996 63.5809 6.996C63.2609 6.996 62.8982 7.03867 62.4929 7.124C62.0982 7.20933 61.7195 7.34267 61.3569 7.524C60.9942 7.69467 60.6902 7.924 60.4449 8.212C60.1995 8.48933 60.0769 8.82533 60.0769 9.22C60.0769 9.764 60.1835 10.196 60.3969 10.516C60.6102 10.836 60.8875 11.0813 61.2289 11.252C61.5809 11.412 61.9755 11.5187 62.4129 11.572C62.8502 11.6253 63.2929 11.652 63.7409 11.652C63.9009 11.652 64.1249 11.636 64.4129 11.604C64.7115 11.5613 65.0369 11.5027 65.3889 11.428C65.7409 11.3533 66.0982 11.2573 66.4609 11.14C66.8235 11.0227 67.1542 10.8893 67.4529 10.74C67.7515 10.5907 67.9969 10.42 68.1889 10.228C68.3809 10.036 68.4769 9.828 68.4769 9.604ZM60.3489 14.18C60.5409 14.3293 60.7862 14.452 61.0849 14.548C61.3835 14.644 61.6982 14.7187 62.0289 14.772C62.3595 14.8253 62.6849 14.8627 63.0049 14.884C63.3249 14.8947 63.6075 14.9 63.8529 14.9C64.4395 14.9 64.9995 14.8093 65.5329 14.628C66.0662 14.4467 66.5409 14.1853 66.9569 13.844C67.3729 13.492 67.7089 13.076 67.9649 12.596C68.2315 12.1053 68.3862 11.556 68.4289 10.948C68.1409 11.1933 67.8049 11.4173 67.4209 11.62C67.0369 11.812 66.6369 11.9773 66.2209 12.116C65.8049 12.244 65.3835 12.3453 64.9569 12.42C64.5409 12.484 64.1409 12.516 63.7569 12.516C63.1489 12.516 62.5622 12.4787 61.9969 12.404C61.4422 12.3187 60.9462 12.164 60.5089 11.94C60.0822 11.7053 59.7409 11.3747 59.4849 10.948C59.2289 10.5107 59.1009 9.94 59.1009 9.236C59.1009 8.724 59.2342 8.27067 59.5009 7.876C59.7782 7.48133 60.1249 7.14533 60.5409 6.868C60.9569 6.59067 61.4102 6.38267 61.9009 6.244C62.4022 6.09467 62.8715 6.02 63.3089 6.02H64.2529C64.9355 6.02 65.5969 6.10533 66.2369 6.276C66.8769 6.44667 67.4422 6.71333 67.9329 7.076C68.4235 7.428 68.8182 7.88133 69.1169 8.436C69.4155 8.98 69.5649 9.63067 69.5649 10.388C69.5649 11.2413 69.4262 12.004 69.1489 12.676C68.8715 13.3373 68.4822 13.8973 67.9809 14.356C67.4795 14.8147 66.8769 15.1667 66.1729 15.412C65.4795 15.6467 64.7115 15.764 63.8689 15.764C63.4955 15.764 63.1222 15.7533 62.7489 15.732C62.3862 15.7107 62.0235 15.668 61.6609 15.604C61.2982 15.54 60.9462 15.444 60.6049 15.316C60.2635 15.1773 59.9382 14.996 59.6289 14.772L60.3489 14.18ZM59.3729 16.372C59.0315 16.0413 58.7595 15.78 58.5569 15.588C58.3542 15.3853 58.1942 15.2307 58.0769 15.124C57.9702 15.0173 57.8902 14.9427 57.8369 14.9C57.7835 14.8467 57.7409 14.804 57.7089 14.772L59.6449 13.108L59.3889 12.836C58.8982 12.4947 58.5089 12.0413 58.2209 11.476C57.9435 10.9 57.8049 10.1533 57.8049 9.236C57.8049 8.55333 57.9649 7.93467 58.2849 7.38C58.6049 6.82533 59.0209 6.35067 59.5329 5.956C60.0555 5.56133 60.6475 5.26267 61.3089 5.06C61.9702 4.84667 62.6369 4.74 63.3089 4.74C64.0129 4.74 64.6849 4.76667 65.3249 4.82C65.9649 4.86267 66.5889 4.99067 67.1969 5.204C67.8155 5.40667 68.4235 5.72133 69.0209 6.148C69.6289 6.564 70.2475 7.14533 70.8769 7.892C71.3035 8.31867 71.6609 8.89467 71.9489 9.62C72.2475 10.3347 72.3969 11.124 72.3969 11.988C72.3969 13.0333 72.2262 13.9667 71.8849 14.788C71.5542 15.5987 71.0849 16.2867 70.4769 16.852C69.8689 17.4173 69.1382 17.8493 68.2849 18.148C67.4315 18.4467 66.4929 18.596 65.4689 18.596C64.9249 18.596 64.3915 18.5587 63.8689 18.484C63.3462 18.42 62.8289 18.3027 62.3169 18.132C61.8155 17.972 61.3195 17.748 60.8289 17.46C60.3382 17.172 59.8529 16.8093 59.3729 16.372ZM63.7409 10.356C63.9435 10.356 64.1675 10.3507 64.4129 10.34C64.6689 10.3293 64.9195 10.308 65.1649 10.276C65.4209 10.244 65.6715 10.196 65.9169 10.132C66.1622 10.068 66.3862 9.988 66.5889 9.892C66.4502 9.87067 66.3169 9.85467 66.1889 9.844C66.0609 9.83333 65.9489 9.828 65.8529 9.828H65.1809C65.0529 9.828 64.8982 9.83867 64.7169 9.86C64.5462 9.87067 64.3649 9.89733 64.1729 9.94C63.9915 9.98267 63.8102 10.0413 63.6289 10.116C63.4582 10.18 63.3142 10.26 63.1969 10.356H63.7409ZM75.241 15.332C76.5957 14.244 77.657 13.3533 78.425 12.66C79.193 11.956 79.8383 11.2253 80.361 10.468C80.8943 9.7 81.161 8.948 81.161 8.212C81.161 7.51867 80.9903 6.97467 80.649 6.58C80.3183 6.17467 79.7797 5.972 79.033 5.972C78.3077 5.972 77.7423 6.20133 77.337 6.66C76.9423 7.108 76.729 7.71067 76.697 8.468H75.289C75.3317 7.27333 75.6943 6.35067 76.377 5.7C77.0597 5.04933 77.9397 4.724 79.017 4.724C80.1157 4.724 80.985 5.028 81.625 5.636C82.2757 6.244 82.601 7.08133 82.601 8.148C82.601 9.03333 82.3343 9.89733 81.801 10.74C81.2783 11.572 80.681 12.308 80.009 12.948C79.337 13.5773 78.4783 14.3133 77.433 15.156H82.937V16.372H75.241V15.332ZM95.6281 16.5H93.8809L86.8537 5.844V16.5H85.1065V3.0984H86.8537L93.8809 13.7352V3.0984H95.6281V16.5Z" fill="#525252"/>
<path d="M32.9487 5.268V11.988C32.9487 12.66 33.1141 13.1773 33.4447 13.54C33.7754 13.9027 34.2607 14.084 34.9007 14.084C35.5407 14.084 36.0314 13.9027 36.3727 13.54C36.7141 13.1773 36.8847 12.66 36.8847 11.988V5.268H39.6207V11.972C39.6207 12.9747 39.4074 13.8227 38.9808 14.516C38.5541 15.2093 37.9781 15.732 37.2527 16.084C36.5381 16.436 35.7381 16.612 34.8527 16.612C33.9674 16.612 33.1727 16.4413 32.4687 16.1C31.7754 15.748 31.2261 15.2253 30.8207 14.532C30.4154 13.828 30.2127 12.9747 30.2127 11.972V5.268H32.9487Z" fill="#37D880"/>
</svg>
